<svg width="18" height="17" viewBox="0 0 18 17" fill="none" xmlns="http://www.w3.org/2000/svg">
<path d="M9.00033 1.83464C12.6762 1.83464 15.667 4.82547 15.667 8.5013C15.667 12.1771 12.6762 15.168 9.00033 15.168C5.32449 15.168 2.33366 12.1771 2.33366 8.5013C2.33366 4.82547 5.32449 1.83464 9.00033 1.83464ZM9.00033 0.167969C4.39783 0.167969 0.666992 3.8988 0.666992 8.5013C0.666992 13.1038 4.39783 16.8346 9.00033 16.8346C13.6028 16.8346 17.3337 13.1038 17.3337 8.5013C17.3337 3.8988 13.6028 0.167969 9.00033 0.167969ZM9.83366 11.0013H8.16699V12.668H9.83366V11.0013ZM8.16699 9.33464H9.83366L10.2503 4.33464H7.75033L8.16699 9.33464Z" fill="#787777"/>
</svg>
