<svg width="15" height="14" viewBox="0 0 15 14" fill="none" xmlns="http://www.w3.org/2000/svg">
<path fill-rule="evenodd" clip-rule="evenodd" d="M7.49967 0.332031C6.97233 0.332031 6.46633 0.541365 6.093 0.914698L5.49766 1.51003C5.37393 1.63206 5.20744 1.70095 5.03367 1.70203H4.193C3.93164 1.70194 3.67283 1.75336 3.43135 1.85333C3.18988 1.95331 2.97047 2.09989 2.78566 2.28469C2.60085 2.4695 2.45428 2.68891 2.3543 2.93039C2.25432 3.17186 2.20291 3.43068 2.203 3.69203V4.53336C2.20192 4.70714 2.13303 4.87363 2.011 4.99736L1.41567 5.5927C1.0426 5.96577 0.833008 6.47176 0.833008 6.99936C0.833008 7.52697 1.0426 8.03296 1.41567 8.40603L2.011 9.00136C2.13303 9.12509 2.20192 9.29158 2.203 9.46536V10.3067C2.203 10.8343 2.41259 11.3403 2.78566 11.7134C3.15873 12.0864 3.66473 12.296 4.19233 12.296H5.03367C5.20766 12.296 5.375 12.3654 5.49766 12.488L6.093 13.0834C6.46607 13.4564 6.97206 13.666 7.49967 13.666C8.02727 13.666 8.53326 13.4564 8.90633 13.0834L9.50167 12.488C9.6254 12.366 9.79189 12.2971 9.96566 12.296H10.807C11.3346 12.296 11.8406 12.0864 12.2137 11.7134C12.5867 11.3403 12.7963 10.8343 12.7963 10.3067V9.46536C12.7963 9.29136 12.8657 9.12403 12.9883 9.00136L13.5837 8.40603C13.9567 8.03296 14.1663 7.52697 14.1663 6.99936C14.1663 6.47176 13.9567 5.96577 13.5837 5.5927L12.9883 4.99736C12.8663 4.87363 12.7974 4.70714 12.7963 4.53336V3.69203C12.7963 3.16443 12.5867 2.65843 12.2137 2.28536C11.8406 1.91229 11.3346 1.7027 10.807 1.7027H9.96566C9.79189 1.70162 9.6254 1.63273 9.50167 1.5107L8.90633 0.915365C8.72175 0.730399 8.50249 0.583666 8.26111 0.483568C8.01973 0.38347 7.76098 0.331975 7.49967 0.332031ZM9.955 5.48536C10.0201 5.42421 10.0723 5.3506 10.1084 5.26889C10.1445 5.18719 10.1638 5.09906 10.1652 5.00974C10.1666 4.92042 10.15 4.83173 10.1165 4.74895C10.0829 4.66616 10.0331 4.59096 9.96987 4.52782C9.90668 4.46467 9.83145 4.41487 9.74864 4.38137C9.66582 4.34787 9.57713 4.33136 9.48781 4.33281C9.39849 4.33426 9.31037 4.35364 9.22869 4.38982C9.14701 4.42599 9.07344 4.4782 9.01233 4.54337L6.177 7.3787L5.32567 6.52736C5.20066 6.40227 5.03108 6.33196 4.85423 6.3319C4.67739 6.33183 4.50776 6.40203 4.38267 6.52703C4.25757 6.65204 4.18726 6.82162 4.1872 6.99846C4.18713 7.17531 4.25733 7.34494 4.38233 7.47003L5.70567 8.7927C5.83068 8.91768 6.00022 8.98789 6.177 8.98789C6.35377 8.98789 6.52331 8.91768 6.64833 8.7927L9.955 5.48603V5.48536Z" fill="#3080F7"/>
</svg>
