<svg width="22" height="22" viewBox="0 0 22 22" fill="none" xmlns="http://www.w3.org/2000/svg">
<path d="M12 15.703C12 14.785 12 14.327 12.203 13.929C12.407 13.532 12.786 13.25 13.544 12.687L14.044 12.315C15.224 11.438 15.814 11 16.5 11C17.186 11 17.776 11.438 18.956 12.315L19.456 12.687C20.214 13.25 20.593 13.532 20.796 13.929C20.999 14.326 21 14.785 21 15.703V17.178C21 18.98 21 19.881 20.414 20.44C19.828 20.999 18.886 21 17 21H12V15.703Z" stroke="#4B4A4A" stroke-width="1.5" stroke-linecap="round" stroke-linejoin="round"/>
<path d="M17 11V4C17 1.518 16.482 1 14 1H10C7.518 1 7 1.518 7 4V21" stroke="#4B4A4A" stroke-width="1.5" stroke-linecap="round" stroke-linejoin="round"/>
<path d="M2.5 15C3.32843 15 4 14.1046 4 13C4 11.8954 3.32843 11 2.5 11C1.67157 11 1 11.8954 1 13C1 14.1046 1.67157 15 2.5 15Z" stroke="#4B4A4A" stroke-width="1.5" stroke-linecap="round" stroke-linejoin="round"/>
<path d="M2.5 15V21M1 21H19M11 5H13M11 8H13M16.5 21V19" stroke="#4B4A4A" stroke-width="1.5" stroke-linecap="round" stroke-linejoin="round"/>
</svg>
