<svg width="33" height="28" viewBox="0 0 33 28" fill="none" xmlns="http://www.w3.org/2000/svg">
<rect x="0.5" width="32" height="28" rx="4" fill="#F3F3F3"/>
<path d="M23.25 5.75H9.75C8.95435 5.75 8.19129 6.06607 7.62868 6.62868C7.06607 7.19129 6.75 7.95435 6.75 8.75V16.25C6.75 17.0456 7.06607 17.8087 7.62868 18.3713C8.19129 18.9339 8.95435 19.25 9.75 19.25H18L22.5 22.25V19.25H23.25C24.0456 19.25 24.8087 18.9339 25.3713 18.3713C25.9339 17.8087 26.25 17.0456 26.25 16.25V8.75C26.25 7.95435 25.9339 7.19129 25.3713 6.62868C24.8087 6.06607 24.0456 5.75 23.25 5.75Z" stroke="#4B4A4A" stroke-width="1.5" stroke-linecap="round" stroke-linejoin="round"/>
<path d="M12 13.25C12 13.4489 11.921 13.6397 11.7803 13.7803C11.6397 13.921 11.4489 14 11.25 14C11.0511 14 10.8603 13.921 10.7197 13.7803C10.579 13.6397 10.5 13.4489 10.5 13.25C10.5 13.0511 10.579 12.8603 10.7197 12.7197C10.8603 12.579 11.0511 12.5 11.25 12.5C11.4489 12.5 11.6397 12.579 11.7803 12.7197C11.921 12.8603 12 13.0511 12 13.25ZM16.5 13.25C16.5 13.4489 16.421 13.6397 16.2803 13.7803C16.1397 13.921 15.9489 14 15.75 14C15.5511 14 15.3603 13.921 15.2197 13.7803C15.079 13.6397 15 13.4489 15 13.25C15 13.0511 15.079 12.8603 15.2197 12.7197C15.3603 12.579 15.5511 12.5 15.75 12.5C15.9489 12.5 16.1397 12.579 16.2803 12.7197C16.421 12.8603 16.5 13.0511 16.5 13.25ZM21 13.25C21 13.4489 20.921 13.6397 20.7803 13.7803C20.6397 13.921 20.4489 14 20.25 14C20.0511 14 19.8603 13.921 19.7197 13.7803C19.579 13.6397 19.5 13.4489 19.5 13.25C19.5 13.0511 19.579 12.8603 19.7197 12.7197C19.8603 12.579 20.0511 12.5 20.25 12.5C20.4489 12.5 20.6397 12.579 20.7803 12.7197C20.921 12.8603 21 13.0511 21 13.25Z" stroke="#4B4A4A" stroke-width="1.5" stroke-linecap="round" stroke-linejoin="round"/>
</svg>
