<svg width="67" height="16" viewBox="0 0 67 16" fill="none" xmlns="http://www.w3.org/2000/svg">
<path d="M61.3225 10.2986L66.8975 5.45013H60.3707L58.101 7.4575L55.7475 5.45013H43.332V4.15505H49.1998V0.261719H33.3849V6.37287H33.3326C32.3285 5.4825 31.0838 5.17492 29.6299 5.17492C26.6594 5.17492 24.4211 6.7452 23.6366 8.80924C21.7539 4.00126 13.449 4.14695 10.8864 7.67604V5.71724H5.1545V3.59655H11.4303V0.269812H0.0292969V15.1956H5.1545V8.92256H10.2692C10.1123 9.38393 10.0287 9.87768 10.0287 10.3957C10.0287 16.3126 20.7602 17.7938 23.6471 12.314H19.254C17.7165 14.0057 14.4635 13.0344 14.4635 11.1323H23.4065C23.7935 13.601 26.2724 15.7379 29.6927 15.7379C31.1675 15.7379 32.5168 15.1794 33.3431 14.2324H33.3954V15.1956H55.5906L57.9022 13.172L60.2347 15.1956H66.9707L61.3225 10.2986ZM14.5995 8.95493C15.2375 6.82615 18.9612 6.88281 19.4632 8.95493H14.5995ZM30.6445 12.913C27.0255 12.913 27.0883 7.82983 30.6445 7.82983C34.0544 7.82983 34.2531 12.913 30.6445 12.913ZM48.1957 14.459H38.3219V0.982106H48.2585V3.42657H42.3906V6.17051H48.1957V8.445H42.3279V12.0631H48.1957V14.459ZM43.3948 11.2375V9.26251H49.2626V5.70105L54.5656 10.3148L49.2626 14.9285V11.2375H43.3948ZM57.8918 12.0712L55.1618 14.459H51.1767L55.9463 10.3148L51.1767 6.17051H55.3292L58.1114 8.54213L60.7891 6.17051H64.816L60.0674 10.2986L64.8788 14.459H60.6426L57.8918 12.0712Z" fill="#1E1D1D"/>
</svg>
