<svg width="22" height="22" viewBox="0 0 22 22" fill="none" xmlns="http://www.w3.org/2000/svg">
<path d="M20.75 11C20.75 16.3848 16.3848 20.75 11 20.75M20.75 11C20.75 5.61522 16.3848 1.25 11 1.25M20.75 11H1.25M11 20.75C5.61522 20.75 1.25 16.3848 1.25 11M11 20.75C13.0711 20.75 14.75 16.3848 14.75 11C14.75 5.61522 13.0711 1.25 11 1.25M11 20.75C8.92893 20.75 7.25 16.3848 7.25 11C7.25 5.61522 8.92893 1.25 11 1.25M1.25 11C1.25 5.61522 5.61522 1.25 11 1.25" stroke="#787777" stroke-width="1.5" stroke-linecap="round" stroke-linejoin="round"/>
</svg>
