<svg width="73" height="22" viewBox="0 0 73 22" fill="none" xmlns="http://www.w3.org/2000/svg">
<path d="M22.9813 9.55304C24.5141 9.55304 25.9769 10.1881 26.6272 11.192L26.7201 9.79867H29.4369V19.8998H26.7664L26.6272 18.4247C25.9769 19.613 24.1891 20.1865 22.9119 20.207C19.5215 20.2274 17.0137 18.3836 17.0137 14.839C17.0137 11.356 19.6379 9.53232 22.9813 9.55304ZM51.5184 9.55304C53.0512 9.55304 54.5139 10.1881 55.1643 11.192L55.2572 9.79867H57.974V19.8998H55.3031L55.1643 18.4247C54.5139 19.613 52.7262 20.1865 51.4486 20.207C48.0586 20.2274 45.5511 18.3836 45.5511 14.839C45.5511 11.356 48.175 9.53232 51.5184 9.55304ZM43.7171 5.57812V19.8998H41.0697L40.8838 18.5067C40.0014 19.7154 38.5853 20.1253 37.192 20.1253C33.8248 20.1253 31.2938 18.1581 31.2938 14.839C31.2938 11.356 33.7785 9.55304 37.1219 9.55304C38.3293 9.55304 40.2107 10.1266 40.8838 11.1716V5.57812H43.7171ZM72.2548 5.57812V19.8998H69.6077L69.4219 18.5067C68.5395 19.7154 67.123 20.1253 65.7297 20.1253C62.3625 20.1253 59.8319 18.1581 59.8319 14.839C59.8319 11.356 62.3162 9.55304 65.66 9.55304C66.8674 9.55304 68.7484 10.1266 69.4219 11.1716V5.57812H72.2548ZM23.2369 11.786C21.3562 11.7863 19.8469 12.913 19.8469 14.839C19.8469 16.7651 21.3562 17.9122 23.2369 17.9122C27.6952 17.9122 27.6952 11.786 23.2369 11.786ZM51.7739 11.786C49.893 11.7863 48.384 12.913 48.384 14.839C48.384 16.7651 49.8933 17.9122 51.7739 17.9122C56.2322 17.9122 56.2322 11.786 51.7739 11.786ZM37.3775 11.8887C35.5666 11.8887 34.127 13.0154 34.127 14.839C34.127 16.6008 35.5666 17.8098 37.3775 17.8098C39.2305 17.8098 40.7327 16.4843 40.7327 14.8492C40.7327 13.2142 39.2305 11.8887 37.3775 11.8887ZM65.9155 11.8887C64.1043 11.8887 62.6637 13.0154 62.6637 14.839H62.6644C62.6644 16.6008 64.1043 17.8098 65.9155 17.8098C67.7686 17.8098 69.2708 16.4843 69.2708 14.8492C69.2708 13.2142 67.7686 11.8887 65.9155 11.8887Z" fill="black"/>
<path d="M16.3702 7.56406L16.6439 9.61855L16.5768 9.68366C15.0621 11.0491 13.1387 12.0063 11.0308 12.4437L11.2009 12.5276C13.3049 13.5793 16.6297 15.7623 16.8985 19.1438L16.9125 19.3618L15.1372 21.142L15.1732 20.5545C15.1907 20.1141 15.1987 15.7583 8.9526 13.7553L8.67117 13.6674C6.96897 17.7655 4.34125 19.4404 3.61861 19.8381L3.43575 19.9327L3.33345 19.9798L0.746094 18.7841L1.07882 18.6018C6.88186 15.5007 7.13634 10.4449 7.14613 9.8108L7.1464 9.74522L7.14036 9.52976H9.83337L9.79312 9.77067C9.73074 10.1152 9.65963 10.4623 9.58483 10.7855C11.9957 10.5009 14.2273 9.51189 15.9246 7.97878L16.0479 7.86563L16.3702 7.56406ZM6.48139 5.74699C7.11339 5.05019 8.18837 4.80862 9.11711 5.14558L9.20112 5.17781L13.438 7.0423L10.52 6.70758L10.4955 6.6768C10.663 7.58435 10.1089 8.47602 9.15163 8.8394C8.19434 9.20278 7.07962 8.94456 6.44806 8.21315C5.8165 7.48174 5.83024 6.4649 6.48139 5.74699ZM19.0588 2.02475V4.73152L16.3756 6.0846V3.37814L19.0588 2.02475ZM13.0214 2.02475L15.3693 3.37814V6.08431L13.0214 4.73122V2.02475ZM13.6503 2.79422L13.5125 3.09994L14.5757 3.64952L14.7136 3.3441L13.6503 2.79422ZM16.0827 0.285156L18.712 1.63824L16.0827 2.99133L13.4535 1.63824L16.0827 0.285156Z" fill="black"/>
</svg>
