<svg width="24" height="24" viewBox="0 0 24 24" fill="none" xmlns="http://www.w3.org/2000/svg">
<path d="M4.5 10.2C4.5 5.51144 8.06059 2.5 12 2.5C15.9394 2.5 19.5 5.51144 19.5 10.2C19.5 11.6607 18.9366 13.2959 17.7464 15.1178C16.5572 16.9381 14.7603 18.9166 12.3408 21.0536C12.1493 21.2188 11.8605 21.2188 11.669 21.0535C9.24452 18.9164 7.44514 16.9379 6.25471 15.1176C5.06333 13.2958 4.5 11.6607 4.5 10.2ZM9.5 10C9.5 11.3761 10.6239 12.5 12 12.5C13.3761 12.5 14.5 11.3761 14.5 10C14.5 8.62386 13.3761 7.5 12 7.5C10.6239 7.5 9.5 8.62386 9.5 10Z" stroke="#787777"/>
</svg>
