<svg width="21" height="20" viewBox="0 0 21 20" fill="none" xmlns="http://www.w3.org/2000/svg">
<path d="M17.2584 3.95507C17.0713 3.8413 16.8573 3.77248 16.6353 3.75465C16.4133 3.73681 16.19 3.77051 15.9851 3.85278L9.27021 6.33836C9.11124 6.39917 8.94123 6.43043 8.76959 6.43042H4.47077C4.10997 6.43042 3.76396 6.56513 3.50883 6.80491C3.25371 7.04469 3.11039 7.36991 3.11039 7.70901V7.8113H1.75V10.8799H3.11039V11.0129C3.11891 11.3466 3.26599 11.664 3.52019 11.8972C3.7744 12.1304 4.11556 12.2609 4.47077 12.2608L6.10323 15.5135C6.21377 15.7326 6.3878 15.9179 6.60534 16.0481C6.82287 16.1784 7.07509 16.2484 7.33302 16.25H8.01866C8.37756 16.2473 8.72079 16.1114 8.97357 15.8719C9.22634 15.6324 9.36817 15.3087 9.36816 14.9714V12.3835L15.9851 14.8691C16.1478 14.93 16.3214 14.9612 16.4966 14.9612C16.7683 14.9571 17.033 14.8789 17.2584 14.7361C17.4374 14.6226 17.585 14.4705 17.6891 14.2927C17.7932 14.1148 17.8508 13.9162 17.857 13.7133V5.00863C17.856 4.80049 17.8009 4.59572 17.6966 4.41212C17.5923 4.22852 17.4419 4.07162 17.2584 3.95507ZM8.00777 7.70901V11.0129H4.47077V7.70901H8.00777ZM8.00777 14.9714H7.32214L5.98352 12.2608H8.00777V14.9714ZM9.77083 11.1663C9.64162 11.1043 9.50688 11.0529 9.36816 11.0129V7.63741C9.50555 7.61077 9.64027 7.57312 9.77083 7.52489L16.4966 5.00863V13.6826L9.77083 11.1663ZM17.8896 8.06702V10.6242C18.2504 10.6242 18.5964 10.4895 18.8516 10.2497C19.1067 10.0099 19.25 9.68471 19.25 9.34561C19.25 9.0065 19.1067 8.68129 18.8516 8.44151C18.5964 8.20172 18.2504 8.06702 17.8896 8.06702Z" fill="#4B4A4A"/>
</svg>
