<svg width="69" height="22" viewBox="0 0 69 22" fill="none" xmlns="http://www.w3.org/2000/svg">
<path d="M68.6912 13.0887C67.0638 10.575 62.2718 10.3482 59.8169 12.1565C58.3061 13.2697 58.3087 16.4577 60.0817 17.6581C61.557 18.6557 63.5772 18.7101 65.0221 17.6969C65.1551 17.6029 65.2223 17.3925 65.4847 17.4658C65.7166 17.5304 65.6444 17.7167 65.6456 17.8538C65.6532 18.817 65.6646 19.7793 65.6469 20.7417C65.6406 21.1452 65.9232 21.3841 66.4365 21.5367C66.8801 21.6687 67.3414 21.6859 67.8027 21.6273C68.529 21.535 68.7862 21.3091 68.7875 20.7943C68.79 19.6017 68.7875 18.41 68.7888 17.2174C68.7888 16.0248 68.7888 14.8323 68.7875 13.6405C68.7862 13.4543 68.8065 13.2672 68.6912 13.0887ZM65.112 16.0541C64.5962 16.3973 64.0082 16.531 63.3212 16.3827C62.6089 16.2301 62.178 15.8765 62.1134 15.3764C62.0526 14.9211 62.0602 14.4572 62.107 13.9993C62.1666 13.4336 62.8548 12.9904 63.6824 12.9265C64.4201 12.8688 65.2755 13.2697 65.5316 13.7906C65.6824 14.0976 65.6406 14.4149 65.6482 14.7296C65.6735 15.2091 65.676 15.6782 65.112 16.0541Z" fill="#9319B6"/>
<path d="M65.9298 8.82681C67.6201 8.92015 68.7798 8.17627 68.7852 6.97901C68.7879 6.44086 68.7866 5.90175 68.7866 5.3636H68.7826C68.7826 4.71497 68.7758 4.06538 68.7866 3.41674C68.792 3.02337 68.4828 2.92336 68.0036 2.96622C67.4959 3.01099 67.3528 3.25196 67.3542 3.5739C67.3555 4.55495 67.3623 5.53696 67.3461 6.51801C67.3326 7.31332 66.9086 7.67431 65.8259 7.82766C65.4141 7.88672 65.1765 8.03435 65.19 8.34009C65.2062 8.67251 65.4803 8.80109 65.9298 8.82681Z" fill="#9319B6"/>
<path d="M63.0271 2.95538C63.4467 2.91292 63.7415 2.7451 63.7512 2.3862C63.7623 1.9899 63.4087 1.88375 63.0051 1.88678C62.6136 1.8888 62.3029 2.03337 62.3127 2.38519C62.3213 2.73701 62.6247 2.90787 63.0271 2.95538Z" fill="#9319B6"/>
<path d="M48.6349 2.95538C49.0604 2.92608 49.3329 2.74522 49.3591 2.39865C49.3866 2.03693 49.0807 1.90456 48.7066 1.88839C48.3134 1.87122 47.9536 1.98337 47.9238 2.35015C47.8927 2.73511 48.25 2.88364 48.6349 2.95538Z" fill="#9319B6"/>
<path d="M51.9269 11.1373C49.8615 11.5531 48.6542 12.7757 48.6471 14.2989C48.6447 14.6847 48.6328 15.0722 48.6614 15.4579C48.7126 16.1392 49.0737 16.7372 49.7102 17.2398C50.8185 18.1136 52.2654 18.4126 53.8409 18.4504C55.0363 18.4787 56.1769 18.3043 57.1815 17.8069C57.8823 17.4598 58.0265 17.0646 57.669 16.5946C57.3377 16.159 56.7847 16.0465 56.0231 16.2673C55.8026 16.3308 55.5881 16.4073 55.376 16.4855C54.7229 16.7269 54.0257 16.7389 53.3404 16.6264C52.6515 16.513 52.1021 16.2303 51.884 15.7122C51.7553 15.4047 51.8959 15.2054 52.3929 15.2062C53.0877 15.2071 53.7837 15.2062 54.4785 15.2062V15.1933C55.1531 15.1933 55.83 15.2122 56.5034 15.189C57.4139 15.1564 57.8037 14.9029 57.9431 14.2654C58.1004 13.5429 57.9133 12.8693 57.2983 12.2731C56.0446 11.0556 53.9255 10.7343 51.9269 11.1373ZM54.4046 13.9957C54.0686 14.0034 53.7325 13.9965 53.3964 13.9965V14.0017C53.0996 14.0017 52.8029 14.0094 52.5073 14C51.909 13.9819 51.7457 13.8307 51.8411 13.3986C51.9495 12.9054 52.6432 12.566 53.5013 12.5884C54.351 12.6098 54.9624 12.9561 55.0268 13.4587C55.0697 13.7852 54.8814 13.9836 54.4046 13.9957Z" fill="#9319B6"/>
<path d="M56.5548 8.28409C56.5682 7.93997 56.2683 7.77654 55.877 7.76638C55.4747 7.75522 55.1249 7.86485 55.1163 8.25567C55.109 8.61908 55.4065 8.78556 55.8185 8.83429C56.2208 8.79571 56.5401 8.63938 56.5548 8.28409Z" fill="#9319B6"/>
<path d="M18.5583 14.3393C18.3705 14.1173 18.3656 13.9516 18.5954 13.7394C19.684 12.7403 20.1263 11.603 20.0571 10.3303C19.9558 8.48358 18.1592 6.65558 15.7942 5.99692C12.7533 5.14932 9.8434 5.85878 8.11846 7.17786C6.64929 8.30176 6.03642 9.64492 6.223 11.0612C6.223 11.5514 6.21929 11.923 6.22424 12.2938C6.22794 12.6209 6.38363 12.9061 6.71478 13.1316C7.27329 13.5122 7.91952 13.6334 8.64978 13.4346C9.39363 13.2323 9.73219 12.8072 9.76309 12.2608C9.79768 11.6378 9.74579 11.0121 9.79768 10.39C9.87923 9.40249 10.9382 8.53171 12.2764 8.29552C13.8135 8.02368 15.1962 8.41852 16.0179 9.36327C16.7667 10.2225 16.6493 11.3776 15.7707 12.1556C15.3024 12.571 14.6809 12.8303 14.0754 13.1075C13.7072 13.276 13.6195 13.4444 13.858 13.7261C14.9972 15.0683 16.1044 16.424 17.2523 17.7618C17.8367 18.4427 18.8994 18.6406 19.6988 18.2653C20.6218 17.8313 20.8393 17.1183 20.2598 16.407C19.6976 15.7163 19.1403 15.0229 18.5583 14.3393Z" fill="#9319B6"/>
<path d="M57.9806 7.76562C57.5863 7.78908 57.2715 7.9145 57.2764 8.27038C57.2813 8.62524 57.5618 8.83631 57.9843 8.83427C58.3896 8.83325 58.7166 8.67112 58.7154 8.29587C58.7141 7.9145 58.3761 7.79316 57.9806 7.76562Z" fill="#9319B6"/>
<path d="M46.5213 2.95538C46.9237 2.8989 47.2231 2.73451 47.2016 2.37345C47.18 2.00231 46.8507 1.87019 46.4483 1.88834C46.0866 1.90448 45.7453 2.01441 45.7644 2.37547C45.7848 2.74762 46.1094 2.91101 46.5213 2.95538Z" fill="#9319B6"/>
<path d="M32.3986 18.1192C33.0676 18.5205 33.8092 18.5205 34.5713 18.3148C35.2573 18.1292 35.3093 17.6968 35.3045 17.2297C35.2924 15.8439 35.2972 14.4572 35.3033 13.0714C35.3045 12.4744 35.371 12.4306 36.1755 12.4232C36.4779 12.4205 36.7816 12.4287 37.0828 12.4159C37.678 12.3912 37.9623 12.128 37.9684 11.6142C37.9744 11.0786 37.6804 10.8025 37.0635 10.7824C36.6812 10.7687 36.2977 10.7714 35.9154 10.7705C35.4871 10.7705 35.319 10.6078 35.2996 10.2878C35.2379 9.3143 35.8694 8.79233 37.1953 8.75302C38.0494 8.72834 38.5466 8.37823 38.5684 7.78679C38.5926 7.14873 38.0784 6.73737 37.1953 6.70538C36.853 6.69258 36.5082 6.68984 36.167 6.70995C33.7535 6.85347 32.1905 8.13325 32.17 9.96241C32.1567 11.149 32.2365 12.3382 32.0938 13.4727C32.0938 14.8338 32.095 16.1437 32.0938 17.4537C32.0938 17.7032 32.1167 17.9491 32.3986 18.1192Z" fill="#9319B6"/>
<path d="M22.4757 11.5641C21.8416 11.8754 21.7375 12.4172 22.2168 12.9297C22.5512 13.2892 22.9958 13.3227 23.7303 13.0467C24.4659 12.7689 25.2474 12.6829 26.0648 12.8033C26.7051 12.8979 27.1918 13.2772 27.2983 13.7209C27.3652 14.0004 27.2401 14.1724 26.8005 14.1801C26.4091 14.1879 26.0153 14.1767 25.6251 14.1965C24.5105 14.2532 23.4033 14.3263 22.441 14.7907C21.5641 15.2129 21.1158 16.0952 21.3709 16.9414C21.6186 17.7593 22.358 18.252 23.5172 18.4077C24.9266 18.5969 26.0103 18.1764 26.9726 17.5383C27.3268 17.3026 27.4779 17.3035 27.608 17.6561C27.7851 18.1368 28.46 18.3604 29.3493 18.2753C30.1716 18.197 30.6286 17.884 30.641 17.3671C30.6546 16.8082 30.6447 16.2492 30.6447 15.6902H30.6423C30.6423 15.1312 30.6707 14.5723 30.6361 14.0141C30.5754 13.0613 30.1592 12.2117 28.9988 11.6157C27.3726 10.7798 24.1266 10.7549 22.4757 11.5641ZM27.2352 15.7435C27.0556 16.1176 26.7348 16.4315 26.2617 16.6516C25.6846 16.9199 25.0369 16.84 24.7594 16.4874C24.4399 16.0806 24.7037 15.5698 25.3415 15.3858C25.7626 15.2645 26.2196 15.2576 26.6147 15.2189C27.2513 15.2129 27.4197 15.3591 27.2352 15.7435Z" fill="#9319B6"/>
<path d="M1.54176 8.72922C2.50477 9.02213 3.47399 8.69009 3.91511 7.90198C4.48794 6.88011 5.28941 5.98513 6.34562 5.22278C10.0311 2.56457 15.711 2.34417 19.6724 4.72282C20.9982 5.51856 22.0482 6.4851 22.7466 7.67013C22.969 8.04892 23.2287 8.41244 23.7643 8.59373C24.439 8.82272 25.2989 8.72349 25.7959 8.35424C26.3538 7.93824 26.5042 7.34382 26.1364 6.73317C23.6437 2.58079 19.3083 0.558992 13.8956 0.285156C10.1666 0.333817 7.20176 1.1038 4.63084 2.70674C2.83032 3.82975 1.46099 5.20943 0.602361 6.86866C0.178638 7.68826 0.58745 8.43916 1.54176 8.72922Z" fill="#9319B6"/>
<path d="M37.8585 14.194C37.9035 14.6218 37.8494 15.0549 37.8777 15.4845C37.9498 16.5692 38.7926 17.3372 40.1526 17.8744C41.1151 18.254 42.1753 18.4236 43.2818 18.4495C44.6599 18.4804 45.9788 18.3306 47.1252 17.7736C47.7853 17.4517 47.9242 17.047 47.5691 16.6097C47.2088 16.1655 46.6491 16.0441 45.8707 16.249C45.6108 16.317 45.3534 16.3902 45.1077 16.4771C44.4476 16.7104 43.7386 16.7311 43.0374 16.6476C42.2654 16.5554 41.6272 16.298 41.3441 15.7694C41.1254 15.3579 41.2798 15.2107 41.9321 15.203C42.6385 15.1935 43.3462 15.2004 44.0539 15.2004V15.1883C44.8246 15.1883 45.5979 15.2064 46.3673 15.184C47.1857 15.159 47.7428 14.8681 47.8496 14.398C48.022 13.6395 47.9165 12.9095 47.1818 12.2716C45.8359 11.1024 44.0011 10.8356 41.9501 11.031C40.0458 11.2118 37.677 12.4988 37.8585 14.194ZM41.236 13.4811C41.3299 13.0188 41.7957 12.7046 42.5433 12.6142C43.4298 12.5066 44.2675 12.7089 44.5763 13.1041C44.9751 13.612 44.6638 13.9779 43.8133 13.996C43.5147 14.0028 43.2162 13.9968 42.9177 13.9968V13.9951C42.5755 13.9951 42.2345 13.9917 41.8935 13.996C41.3608 14.002 41.1678 13.8221 41.236 13.4811Z" fill="#9319B6"/>
<path d="M42.7497 8.81676C44.3743 8.83953 46 8.84143 47.6246 8.81771C48.6763 8.80158 49.4577 8.3006 49.5713 7.50453C49.6515 6.93808 50.0107 6.85174 50.6292 6.85648C52.7673 6.87166 54.9066 6.86218 57.0459 6.86218V6.85838C59.1852 6.85838 61.3232 6.85648 63.4625 6.85838C64.0118 6.85933 64.5106 6.77868 64.9636 6.51206C65.8931 5.96648 66.0092 5.22639 65.8462 4.42274C65.6524 3.47391 64.6414 2.916 63.2835 2.98337C62.154 3.0403 61.2837 3.74338 61.2467 4.64287C61.2343 4.92657 61.2331 5.21311 61.2677 5.49492C61.2998 5.77102 61.1998 5.92094 60.8109 5.91714C60.1937 5.9124 59.5777 5.91619 58.9605 5.91619C58.6235 5.91714 58.4383 5.82226 58.5716 5.53951C58.8815 4.87913 58.7445 4.19407 58.7605 3.51851C58.7691 3.14751 58.5124 2.97103 58.0322 2.97198C57.552 2.97198 57.3039 3.14752 57.2965 3.51756C57.289 3.91322 57.3051 4.30888 57.2767 4.70359C57.2187 5.50915 56.6706 5.9105 55.6201 5.91524C53.9338 5.92189 52.2463 5.91904 50.5601 5.91619C49.7244 5.91525 49.7034 5.88868 49.7367 5.24158C49.7663 4.66943 49.775 4.09729 49.2244 3.63142C48.2529 2.80973 46.7851 2.72908 45.7531 3.44355C44.8483 4.07073 44.7755 5.55564 45.6013 6.2701C46.1395 6.73598 46.8209 6.8783 47.5986 6.86692C47.8727 6.86312 48.2331 6.83276 48.2628 7.14872C48.2912 7.45424 48.0011 7.58992 47.6591 7.66204C47.5616 7.68291 47.4567 7.69335 47.3542 7.69335C45.9358 7.69524 44.5162 7.71043 43.0978 7.68671C42.2547 7.67247 41.9362 7.32805 42.0745 6.6781C42.0979 6.56994 42.1436 6.46367 42.1745 6.3555C42.2461 6.11734 42.2016 5.90955 41.8807 5.79759C41.5486 5.68278 41.2449 5.7511 41.0758 5.98261C40.6265 6.60125 40.6351 7.26258 40.9561 7.90399C41.261 8.51408 41.9288 8.80442 42.7497 8.81581V8.81676ZM62.7675 4.45974C62.8836 4.1343 63.1848 3.94738 63.6378 3.98248C64.0637 4.01474 64.2859 4.23297 64.3476 4.54798C64.3711 4.67228 64.3674 4.79943 64.3785 4.95883C64.3649 5.08407 64.3674 5.24442 64.3242 5.39719C64.2365 5.69796 63.9588 5.85452 63.5724 5.8678C63.1835 5.88109 62.8922 5.73971 62.7786 5.44368C62.654 5.11918 62.654 4.78329 62.7675 4.45974ZM47.9826 5.65242C47.7418 5.86021 47.4258 5.94086 47.0938 5.81941C46.4383 5.57746 46.5173 5.10495 46.5494 4.66659C46.574 4.32501 46.7753 4.05459 47.2555 3.98818C47.653 3.93314 47.9233 4.09444 48.106 4.34873C48.2393 4.5328 48.248 4.73965 48.2591 4.91803C48.2541 5.20173 48.2146 5.45317 47.9826 5.65242Z" fill="#9319B6"/>
</svg>
