<svg width="22" height="16" viewBox="0 0 22 16" fill="none" xmlns="http://www.w3.org/2000/svg">
<rect width="22" height="16" rx="2" fill="#249F58"/>
<path fill-rule="evenodd" clip-rule="evenodd" d="M16.7619 10.6682V9.60157H5.23809L7.33333 10.6682H13.619C13.619 11.257 14.323 11.7349 15.1905 11.7349C16.0579 11.7349 16.7619 11.257 16.7619 10.6682ZM9.14571 4.16797C9.13314 4.16797 9.11428 4.17437 9.09018 4.1893C9.03361 4.2277 8.92256 4.3461 8.91837 4.48264C8.91523 4.5605 8.90057 4.5605 8.9498 4.61064C8.98542 4.66184 9.02314 4.65757 9.09437 4.6181C9.13628 4.5861 9.1499 4.56797 9.16457 4.5157C9.18133 4.43037 9.07342 4.55837 9.0598 4.46024C9.03571 4.37064 9.10485 4.33224 9.1698 4.2469C9.1719 4.20424 9.1719 4.17224 9.14571 4.1701V4.16797ZM10.1965 4.1733C10.1755 4.17757 10.1514 4.2053 10.1168 4.26717C10.0928 4.3333 9.98695 4.43357 10.0645 4.6405C10.1252 4.7717 10.1514 4.98397 10.1231 5.22184C10.0791 5.28904 10.0708 5.3125 10.0131 5.3797C9.93352 5.46824 9.84552 5.44584 9.78057 5.4117C9.71771 5.36904 9.66952 5.3477 9.64123 5.2133C9.64647 4.99997 9.65904 4.64584 9.62028 4.57117C9.56371 4.45597 9.46942 4.4965 9.42961 4.5317C9.2379 4.71304 9.14256 5.0149 9.0839 5.25704C9.03152 5.43197 8.9739 5.38077 8.93409 5.31037C8.83666 5.2165 8.82933 4.48904 8.71199 4.60957C8.52342 5.15784 8.8199 5.75837 9.02628 5.6997C9.17295 5.7637 9.26723 5.4757 9.32799 5.16104C9.3699 5.0725 9.40133 5.06184 9.42228 5.1077C9.41704 5.52584 9.45371 5.6197 9.55847 5.74557C9.79314 5.93117 9.98799 5.76904 10.0037 5.7541L10.187 5.5685C10.2289 5.52584 10.2813 5.52157 10.3389 5.55997C10.3955 5.6133 10.3882 5.70184 10.5066 5.76264C10.6092 5.8053 10.824 5.7733 10.8732 5.68477C10.9413 5.56744 10.957 5.5269 10.9885 5.4821C11.0367 5.4181 11.1194 5.4469 11.1194 5.46717C11.1121 5.5045 11.0639 5.54184 11.0964 5.60584C11.154 5.6485 11.1676 5.62077 11.2011 5.61117C11.3206 5.55357 11.4107 5.28904 11.4107 5.28904C11.4159 5.1909 11.3614 5.19837 11.3269 5.21864C11.2797 5.24744 11.2776 5.25704 11.2326 5.28584C11.1729 5.29437 11.0597 5.33384 11.0042 5.2453C10.9466 5.13864 10.9466 4.99144 10.9026 4.88264C10.9026 4.87624 10.8261 4.71517 10.8963 4.70557C10.9309 4.71197 11.0084 4.73224 11.0199 4.66717C11.0576 4.60317 10.9392 4.42184 10.8586 4.33224C10.7894 4.25437 10.693 4.24477 10.5998 4.3237C10.5338 4.38557 10.5443 4.45384 10.5307 4.5189C10.5149 4.59357 10.5181 4.68637 10.5935 4.78557C10.6585 4.9157 10.7769 5.08424 10.737 5.32104C10.737 5.32104 10.6689 5.4341 10.5485 5.41917C10.4961 5.4085 10.4144 5.38717 10.3704 5.0565C10.3389 4.80797 10.3788 4.45917 10.2761 4.29597C10.252 4.23517 10.2321 4.17544 10.1986 4.17864L10.1965 4.1733ZM9.86333 4.20104C9.8319 4.20424 9.79733 4.24157 9.76904 4.31304C9.74495 4.3685 9.71456 4.65437 9.7198 4.65437C9.69885 4.7397 9.80676 4.77597 9.85599 4.66717C9.92933 4.4645 9.92933 4.37917 9.93352 4.29597C9.92304 4.23197 9.89476 4.19997 9.86333 4.2021V4.20104ZM11.0922 4.22237C11.0608 4.22664 11.0346 4.24584 11.0251 4.2949C11.0115 4.40797 11.0189 4.4709 11.0377 4.56584C11.0513 4.62984 11.1425 4.73437 11.1865 4.79624C11.3991 5.08744 11.6055 5.3797 11.8025 5.68157C11.8339 5.9077 11.8549 6.12744 11.8706 6.34717C11.9041 6.82717 11.9125 7.4245 11.8842 7.93117C11.9722 7.93437 12.1147 7.78504 12.1639 7.5685C12.1953 7.26557 12.1534 6.65117 12.1492 6.47197L12.1388 6.2181C12.3692 6.6021 12.5913 7.00744 12.8092 7.45117C12.8899 7.41277 12.8721 6.95517 12.826 6.89117C12.65 6.50717 12.4069 6.12744 12.3305 5.9813C12.3022 5.92797 12.2069 5.78184 12.0948 5.61224C12.0738 5.36904 12.0508 5.16424 12.0361 5.10237C11.9994 4.84637 12.1388 5.13117 12.1199 4.9829C12.0738 4.7269 11.9355 4.5541 11.7721 4.31944C11.7197 4.24477 11.7197 4.2277 11.639 4.33864C11.5919 4.45064 11.5919 4.5445 11.6076 4.63197C11.5846 4.59997 11.5584 4.5637 11.5207 4.51677L11.2535 4.28637C11.2168 4.2597 11.1456 4.21917 11.0922 4.22237ZM14.7337 4.26184C14.718 4.2597 14.7023 4.26717 14.6813 4.29597C14.6447 4.32797 14.6059 4.38877 14.608 4.46664C14.6153 4.59997 14.6394 4.73757 14.6478 4.87197L14.6583 4.9253C14.6436 4.90824 14.631 4.8933 14.6237 4.8869C14.3649 4.60957 14.7421 4.83997 14.5734 4.6277C14.432 4.4677 14.3901 4.41864 14.2696 4.32264C14.2068 4.28424 14.1711 4.20744 14.1512 4.33757C14.1429 4.4517 14.1345 4.58504 14.1408 4.68104C14.1408 4.73437 14.1963 4.8357 14.2434 4.89437C14.4152 5.1109 14.5912 5.34024 14.7672 5.57917C14.8049 6.06664 14.8144 6.51357 14.851 7.0021C14.8468 7.21117 14.784 7.4885 14.7253 7.5141C14.7253 7.5141 14.6331 7.56744 14.5724 7.50877C14.5273 7.49064 14.3503 7.2069 14.3503 7.2069C14.2591 7.12157 14.1984 7.1461 14.1345 7.2069C13.9564 7.38184 13.8747 7.71037 13.7542 7.9365C13.7228 7.98664 13.6358 8.03037 13.5384 7.93224C13.2901 7.58664 13.4336 7.0949 13.4043 7.22184C13.1843 7.4757 13.2807 7.89597 13.3309 7.98664C13.4043 8.13597 13.4629 8.23197 13.6033 8.30344C13.7343 8.39944 13.8338 8.34077 13.8904 8.27144C14.0203 8.1349 14.0224 7.78397 14.0831 7.71464C14.125 7.58664 14.2329 7.60797 14.2853 7.66557C14.3377 7.74024 14.3964 7.78824 14.4708 7.82877C14.5923 7.93757 14.7369 7.95677 14.8793 7.85757C14.9768 7.8021 15.0407 7.72957 15.0972 7.58664C15.1601 7.42024 15.1287 6.54557 15.115 6.05917L15.3874 6.46024C15.4251 6.8869 15.4429 7.30824 15.4293 7.71144C15.4209 7.79144 15.7049 7.4725 15.7017 7.32104C15.7017 7.18984 15.7038 7.0693 15.7017 6.95837C15.841 7.18237 15.9741 7.40957 16.0998 7.64104C16.1784 7.59837 16.1522 7.14717 16.1029 7.08637C15.9709 6.86024 15.8012 6.61704 15.6703 6.42717C15.6441 6.1893 15.6095 5.90877 15.5928 5.82237C15.5687 5.68797 15.5435 5.48637 15.5058 5.32744C15.4953 5.26664 15.4639 5.06824 15.4744 5.0501C15.489 5.00424 15.5477 5.0501 15.576 4.9989C15.6179 4.9509 15.4272 4.44424 15.3298 4.3013C15.2952 4.2373 15.2313 4.25864 15.1538 4.3653C15.0805 4.43357 15.1077 4.59144 15.1349 4.74184C15.2062 5.12584 15.2711 5.5141 15.3214 5.9045C15.2271 5.7605 15.1119 5.5877 14.9988 5.42237L14.9841 5.3477C14.9841 5.33917 14.9694 5.03304 14.9558 4.9605C14.9527 4.93064 14.9453 4.9221 14.9768 4.92637C15.0082 4.9541 15.0124 4.95517 15.0323 4.96477C15.0658 4.96904 15.0951 4.91357 15.0742 4.8613L14.7704 4.2917C14.7599 4.27784 14.7452 4.26504 14.7285 4.2629L14.7337 4.26184ZM5.33656 4.2725C5.27895 4.27037 5.21818 4.3045 5.24228 4.37384C5.22761 4.41117 5.35123 4.53704 5.37323 4.60637C5.39104 4.6565 5.35228 4.81437 5.39418 4.83037C5.43085 4.84637 5.48218 4.71944 5.50104 4.60317C5.51152 4.53917 5.50418 4.31944 5.35752 4.27464C5.35018 4.2725 5.34285 4.2725 5.33447 4.27144L5.33656 4.2725ZM16.0432 4.2725C16.0296 4.27464 16.0139 4.29384 15.9909 4.34717C15.9332 4.44317 15.9133 4.61384 15.9364 4.76317C16.0726 5.7125 16.1773 6.63197 16.1983 7.4725C16.1857 7.55357 16.1815 7.59624 16.1459 7.6965C16.0642 7.80317 15.9741 7.93544 15.8892 7.99944C15.8054 8.06344 15.6252 8.1253 15.5666 8.17224C15.378 8.28103 15.378 8.4069 15.5289 8.41224C15.7887 8.38024 16.0967 8.3589 16.3083 8.03357C16.3649 7.9429 16.4319 7.69544 16.434 7.5429C16.4549 6.65757 16.4235 5.78824 16.2926 5.14717C16.2842 5.08317 16.2569 4.9413 16.2674 4.92317C16.2831 4.87837 16.368 4.92637 16.3984 4.87624C16.4434 4.8293 16.1784 4.48477 16.0862 4.33757C16.0673 4.3013 16.0548 4.27037 16.0401 4.27357L16.0432 4.2725ZM13.3163 4.28744C13.3058 4.28957 13.2911 4.30664 13.2618 4.3461C13.1885 4.58717 13.1633 4.78344 13.1916 4.9349C13.3802 5.9269 13.5688 6.82824 13.5394 7.77224C13.6274 7.77224 13.7301 7.56637 13.7741 7.36157C13.7982 7.0789 13.7573 6.90717 13.751 6.7429C13.7437 6.5765 13.5667 5.2325 13.531 5.1077C13.487 4.8709 13.7028 5.0757 13.6798 4.93917C13.6044 4.76424 13.4179 4.5125 13.3613 4.35997C13.3404 4.31944 13.3362 4.2821 13.3194 4.2853L13.3163 4.28744ZM6.68066 4.30664C6.65971 4.3109 6.63561 4.3301 6.62828 4.35997C6.62304 4.3813 6.63666 4.4165 6.6178 4.42717C6.60733 4.43784 6.56752 4.43037 6.56961 4.37384C6.56961 4.35464 6.55599 4.33544 6.54866 4.3237C6.54028 4.31944 6.53504 4.31837 6.52037 4.31837C6.50256 4.31837 6.50256 4.3237 6.49314 4.3397C6.48895 4.35464 6.48266 4.36957 6.48266 4.38664C6.48057 4.40797 6.47218 4.4133 6.45856 4.4165C6.4418 4.4165 6.44495 4.41864 6.43237 4.40904C6.4219 4.40157 6.41352 4.39837 6.41352 4.38344C6.41352 4.36744 6.40933 4.34077 6.40514 4.33224C6.3978 4.32157 6.38628 4.3173 6.37371 4.3141C6.30457 4.3141 6.30037 4.3973 6.30352 4.42717C6.29828 4.43357 6.29618 4.5765 6.39047 4.61704C6.51618 4.6789 6.75504 4.65224 6.74666 4.44424C6.74666 4.4261 6.74142 4.36424 6.73933 4.34824C6.72676 4.31624 6.70266 4.30557 6.67961 4.30877L6.68066 4.30664ZM8.38409 4.30877C8.34009 4.3109 8.30028 4.3237 8.26885 4.34077C8.18504 4.4229 8.16409 4.5541 8.23114 4.63624C8.29399 4.66824 8.35999 4.73224 8.31704 4.76957C8.13476 4.9669 7.66018 5.29864 7.63609 5.35944V5.36584H7.64028V5.36797C7.66437 5.38397 7.9619 5.38397 7.99437 5.36797H7.99647C8.09914 5.3285 8.58314 4.7653 8.58314 4.7653C8.55799 4.74397 8.53495 4.7269 8.5098 4.7045C8.48256 4.68104 8.48571 4.65757 8.5098 4.6341C8.62923 4.5637 8.59152 4.4069 8.52866 4.33544C8.47628 4.31197 8.42809 4.30344 8.38409 4.30664V4.30877ZM12.8365 4.30877C12.8239 4.31197 12.8082 4.3301 12.7841 4.38344C12.7265 4.47944 12.6877 4.64477 12.6929 4.79944C12.8166 5.6741 12.8543 6.4389 12.936 7.31357C12.9423 7.3989 12.9297 7.5205 12.8752 7.56957C12.6699 7.78717 12.3755 8.05384 12.0549 8.17757C12.0204 8.21704 12.1409 8.3845 12.2959 8.3845C12.5557 8.3525 12.7841 8.2053 12.9978 7.81384C13.0533 7.72317 13.1529 7.52797 13.1549 7.3765C13.1759 6.48904 13.113 5.79784 12.981 5.15784C12.9737 5.09384 12.9789 5.01917 12.9894 5.0021C13.0062 4.98077 13.0628 5.0021 13.0942 4.95197C13.1382 4.90504 12.9748 4.5221 12.8826 4.37597C12.8637 4.33864 12.8532 4.30877 12.8365 4.30984V4.30877ZM5.93895 4.33757C5.90333 4.34184 5.8698 4.36957 5.85304 4.41224C5.8478 4.5509 5.84676 4.68957 5.86352 4.8197C5.92637 5.0469 5.94418 5.24637 5.97457 5.47784C5.98504 5.7893 5.79857 5.61224 5.80695 5.45864C5.84885 5.2581 5.83837 4.94344 5.80066 4.86344C5.76923 4.78344 5.73571 4.76424 5.66237 4.7781C5.60476 4.77384 5.45495 4.9381 5.41304 5.21544C5.41304 5.21544 5.37742 5.35624 5.36276 5.4821C5.3418 5.62397 5.24961 5.7253 5.18466 5.4629C5.12914 5.2709 5.09561 4.80157 5.00237 4.91037C4.97514 5.2773 4.94371 5.9237 5.24961 5.98984C5.62047 6.0261 5.41514 5.35197 5.54923 5.2293C5.57542 5.17064 5.62256 5.16957 5.62571 5.2453V5.8181C5.62152 6.0037 5.74095 6.05917 5.83523 6.09757C5.93266 6.0901 5.99657 6.0933 6.03428 6.1893L6.08142 7.1813C6.08142 7.1813 6.30561 7.2453 6.31609 6.62344C6.32656 6.25757 6.24276 5.95144 6.29199 5.87997C6.29409 5.80957 6.38209 5.8053 6.44285 5.8405C6.54028 5.90984 6.58323 5.99517 6.73409 5.96104C6.96457 5.89704 7.10076 5.78397 7.1039 5.60477C7.09342 5.4341 7.07247 5.26344 6.99914 5.09277C7.00961 5.0629 6.95723 4.9829 6.96771 4.95197C7.00752 5.01597 7.07037 5.0117 7.08295 4.95197C7.04523 4.82077 6.98447 4.69597 6.88599 4.64264C6.80533 4.56797 6.68695 4.58397 6.64295 4.73544C6.62199 4.91037 6.7058 5.1173 6.83152 5.2869C6.85666 5.35304 6.89437 5.4629 6.87761 5.5621C6.81161 5.6005 6.74561 5.58344 6.68904 5.52477C6.68904 5.52477 6.5078 5.3861 6.5078 5.3541C6.55704 5.03944 6.51828 5.0021 6.49209 4.91677C6.47323 4.79517 6.41666 4.75677 6.37161 4.67357C6.32552 4.62344 6.26371 4.62344 6.23542 4.67357C6.15371 4.81544 6.19142 5.12157 6.25009 5.25704C6.29199 5.3829 6.35695 5.46184 6.32657 5.46184C6.30142 5.53117 6.24904 5.51517 6.21133 5.43304C6.15895 5.26237 6.14637 5.01064 6.14637 4.8965C6.13066 4.7557 6.11285 4.45384 6.02066 4.37704C5.99657 4.3429 5.96828 4.33117 5.93999 4.33437L5.93895 4.33757ZM7.24009 4.33757C7.22228 4.34184 7.20133 4.3525 7.17723 4.3589C7.09866 4.38344 7.02533 4.45277 7.04837 4.58717C7.14266 5.16317 7.20237 5.6037 7.29561 6.1797C7.30923 6.24797 7.25371 6.3365 7.18247 6.32904C7.06095 6.2437 7.03057 6.07304 6.82314 6.08157C6.67228 6.08157 6.50047 6.2501 6.47952 6.4101C6.45437 6.5381 6.44599 6.67677 6.47952 6.7877C6.58428 6.9157 6.71209 6.9029 6.82314 6.87304C6.91428 6.8357 6.99076 6.74504 7.02218 6.76637C7.04314 6.80157 7.02009 7.1013 6.59266 7.3317C6.32866 7.4533 6.11914 7.48104 6.00599 7.26344C5.93685 7.1269 6.01228 6.60637 5.84047 6.72584C5.33133 8.0613 7.03161 8.2469 7.22123 6.7813C7.2338 6.73864 7.27047 6.6981 7.29771 6.70877C7.30818 6.7141 7.31866 6.7301 7.32285 6.75997C7.28304 8.0869 6.00704 8.17864 5.79123 7.7605C5.73676 7.66237 5.72104 7.44264 5.7158 7.3125C5.70533 7.2325 5.68647 7.18664 5.66342 7.1685C5.61104 7.12904 5.5419 7.2325 5.52723 7.41064C5.50628 7.55464 5.51152 7.5941 5.51152 7.73277C5.58066 8.7813 7.22228 8.3301 7.48942 7.4661C7.62142 7.0181 7.48628 6.67997 7.53133 6.63837L7.53447 6.63624H7.53761L7.54285 6.6341C7.70628 6.8133 7.93466 6.65544 7.98495 6.59464C8.0059 6.56264 8.06037 6.5413 8.09809 6.58397C8.2238 6.6757 8.44799 6.63197 8.49409 6.46664C8.52133 6.30664 8.54437 6.14237 8.54961 5.97064C8.4658 5.9973 8.39876 6.0165 8.37152 6.0453C8.36523 6.05277 8.36104 6.0613 8.35895 6.06984L8.33799 6.2117C8.33799 6.21704 8.3359 6.22024 8.3338 6.22237C8.33066 6.22984 8.32333 6.23517 8.31914 6.23837C8.2898 6.25437 8.23847 6.24584 8.23533 6.2021C8.19656 6.02077 8.03418 5.9973 7.93571 6.27997C7.86971 6.3333 7.74714 6.34397 7.73666 6.2629C7.75237 6.07304 7.67695 6.04744 7.52714 6.13704L7.38256 5.0277C7.44542 5.0245 7.50199 5.07037 7.56066 4.99784C7.4978 4.80157 7.36685 4.40264 7.29247 4.36424H7.29037L7.2799 4.35357C7.2799 4.35144 7.27676 4.35037 7.27466 4.3493L7.27047 4.3429C7.26628 4.3429 7.26209 4.34077 7.25999 4.3397C7.25266 4.33757 7.24637 4.33757 7.23904 4.33757H7.24009ZM12.3127 4.34184C12.2477 4.3397 12.1765 4.3813 12.2037 4.4645C12.1869 4.51037 12.343 4.66397 12.3682 4.74717C12.4132 4.87517 12.3336 4.99997 12.3808 5.0181C12.4248 5.0373 12.4855 4.88477 12.5065 4.7429C12.5337 4.6277 12.4541 4.39304 12.3389 4.34504L12.3127 4.3429V4.34184ZM8.35999 4.48157C8.38933 4.47944 8.42495 4.50717 8.4438 4.54557C8.46161 4.58824 8.45218 4.6277 8.42285 4.63517C8.39142 4.64264 8.35161 4.61597 8.33276 4.5733C8.3139 4.53064 8.32228 4.49117 8.35371 4.4837H8.35999V4.48157ZM15.6902 4.6757C15.6305 4.67357 15.5645 4.71837 15.5917 4.80904C15.577 4.8581 15.7174 5.0245 15.7415 5.11624C15.7625 5.18024 15.7101 5.3893 15.752 5.4085C15.7918 5.42984 15.8463 5.26344 15.8672 5.10984C15.8798 5.0245 15.819 4.73117 15.7153 4.6789C15.708 4.67677 15.6996 4.67464 15.6912 4.67464L15.6902 4.6757ZM11.6359 4.7781C11.6432 4.80264 11.6485 4.82717 11.6516 4.85277C11.6642 4.9061 11.6747 4.95944 11.6851 5.0149C11.639 4.94877 11.6013 4.89544 11.5835 4.87624C11.4788 4.74824 11.5856 4.79304 11.6359 4.7781ZM12.5714 5.2453C12.5484 5.24957 12.5264 5.26984 12.519 5.30184C12.5128 5.32104 12.5274 5.35517 12.5086 5.36584C12.4981 5.3765 12.4562 5.3701 12.4593 5.3125C12.4593 5.2933 12.4457 5.27304 12.4384 5.26237C12.43 5.25704 12.4248 5.2549 12.4101 5.2549C12.3923 5.2549 12.3923 5.26024 12.3829 5.27624C12.3787 5.29117 12.3724 5.3061 12.3724 5.32424C12.3724 5.34557 12.364 5.35197 12.3493 5.35624C12.3326 5.35624 12.3357 5.35624 12.3221 5.34877C12.3137 5.3381 12.3043 5.33597 12.3043 5.32104C12.3043 5.30504 12.3011 5.2805 12.2959 5.26984C12.2886 5.25917 12.2781 5.25597 12.2645 5.2517C12.1964 5.2517 12.1911 5.33277 12.1953 5.36264C12.1911 5.36904 12.188 5.5141 12.2823 5.55464C12.4101 5.61544 12.6489 5.58664 12.6385 5.3797C12.6385 5.36157 12.6332 5.2997 12.6322 5.2837C12.6186 5.2517 12.5945 5.24104 12.5725 5.24424L12.5714 5.2453ZM8.30761 5.28797C8.29295 5.28797 8.27199 5.29224 8.2479 5.30717C8.1358 5.36904 8.09285 5.5525 8.16409 5.65917C8.22695 5.75517 8.33171 5.71997 8.34533 5.71997C8.45533 5.7349 8.52028 5.5109 8.52028 5.5109C8.52028 5.5109 8.52342 5.4469 8.39456 5.56637C8.33799 5.57704 8.33171 5.5557 8.31704 5.5237C8.30447 5.46717 8.30656 5.40637 8.33276 5.34984C8.34533 5.31464 8.33276 5.29224 8.30761 5.2901V5.28797ZM14.3346 5.31677C14.2717 5.31357 14.2057 5.35517 14.1879 5.44157C14.1879 5.49277 14.2109 5.5205 14.2068 5.56744C14.2015 5.5941 14.1753 5.6101 14.1104 5.58024C14.1209 5.56957 14.0685 5.49704 14.0685 5.49704C14.0192 5.46504 13.9532 5.49704 13.9092 5.5269C13.8851 5.5717 13.8673 5.64744 13.8946 5.72424C13.9658 5.8597 14.212 6.0901 14.3293 6.09224C14.3314 5.97064 14.3429 5.8085 14.3503 5.70824C14.3524 5.66984 14.3608 5.62824 14.3974 5.61864C14.433 5.60797 14.4949 5.6549 14.4949 5.61544C14.4886 5.53864 14.4739 5.42344 14.432 5.3701C14.4089 5.3381 14.3723 5.3189 14.3356 5.31677H14.3346ZM9.34476 5.74024L9.34161 5.74344C9.34161 5.74344 9.33952 5.74344 9.33847 5.74557C9.3259 5.75624 9.31123 5.77757 9.27876 5.7989C9.22323 5.8629 9.2138 5.90877 9.2159 6.03677C9.22009 6.05064 9.32066 6.33864 9.40761 6.54024C9.46628 6.75037 9.51971 6.99144 9.48095 7.21864C9.34476 7.51944 9.07237 7.7893 8.80733 7.9365C8.67114 7.97917 8.5559 7.96424 8.52447 7.93437C8.44695 7.88104 8.4459 7.78504 8.45114 7.7701V7.7669C8.67323 7.60904 8.9278 7.48104 9.12685 7.05544C9.18552 6.89224 9.20437 6.7941 9.14571 6.54344C9.12266 6.44744 9.09333 6.37277 9.03047 6.3045H9.03256C9.07028 6.28637 9.16876 6.35997 9.18447 6.31517C9.16037 6.19357 9.07971 6.0325 8.99066 5.9493C8.91104 5.87464 8.82304 5.86717 8.7518 5.93437C8.67009 5.9813 8.65333 6.1477 8.69209 6.29277C8.73609 6.40157 8.85447 6.42077 8.93828 6.64157C8.94037 6.6565 8.96656 6.8069 8.92466 6.86877C8.88904 6.97757 8.44799 7.3317 8.41657 7.35304L8.41342 7.35517L8.41133 7.3573H8.40923H8.40714V7.3541C8.40504 7.34557 8.40714 7.3221 8.40714 7.2869C8.40399 7.22077 8.43123 7.07037 8.42809 7.0437V7.04157C8.28142 7.13757 8.23218 7.4309 8.20599 7.51837C7.83618 7.77757 7.41714 7.97064 7.17514 8.23304C7.04942 8.4357 8.04257 8.00477 8.1578 7.9525L8.16095 7.9557C8.18399 7.98024 8.18504 8.06557 8.25104 8.14344C8.3558 8.2853 8.57371 8.37277 8.78742 8.31837C9.14571 8.18717 9.35314 7.93864 9.56266 7.66237C9.59199 7.6197 9.63914 7.58344 9.68314 7.61757C9.82666 7.9461 10.2436 8.18077 10.781 8.20424C10.9068 8.05064 10.847 7.9749 10.7968 7.9429C10.781 7.93224 10.5296 7.83197 10.4898 7.73277C10.4657 7.64104 10.5254 7.5589 10.6449 7.4981C10.9906 7.45544 11.33 7.40744 11.6589 7.2997C11.6621 7.18664 11.727 7.01917 11.771 6.94557C11.8025 6.89544 11.8203 6.8901 11.8276 6.8837V6.88157H11.8297V6.87837V6.8677L11.7731 6.83357L10.67 6.8293C10.6564 6.82397 10.6469 6.81864 10.6407 6.8133L10.6386 6.8101C10.6386 6.8101 10.6365 6.8101 10.6365 6.80797C10.6365 6.80584 10.6344 6.80584 10.6344 6.80584V6.8069V6.80477V6.80264V6.8005L10.6365 6.7973C10.6417 6.7909 10.6553 6.78344 10.671 6.77597C10.935 6.74077 11.4023 6.6629 11.4337 6.2053C11.4285 5.96637 11.3331 5.81064 11.0461 5.76797C10.8345 5.78397 10.6836 5.99197 10.7077 6.22024C10.6972 6.28104 10.7287 6.40157 10.6658 6.41544C10.2614 6.45384 9.81933 6.71197 9.80466 6.89757H9.80257H9.80047H9.79837C9.79837 6.8997 9.79628 6.8997 9.79523 6.8997H9.79104H9.78895H9.78476C9.75856 6.89117 9.72504 6.84637 9.73028 6.78557C9.71456 6.46557 9.6119 6.1029 9.45266 5.82557C9.39504 5.7669 9.36885 5.74344 9.35418 5.74024H9.35104H9.3479H9.3458H9.34476ZM10.4008 5.90877C10.3798 5.91304 10.3557 5.93224 10.3484 5.96424C10.3431 5.98557 10.3589 6.0197 10.34 6.03037C10.3295 6.04104 10.2876 6.03464 10.2897 5.97704C10.2897 5.9589 10.2761 5.93864 10.2688 5.9269C10.2604 5.92157 10.2551 5.9205 10.2415 5.9205C10.2237 5.9205 10.2227 5.92477 10.2132 5.9397C10.208 5.95464 10.2028 5.9717 10.2028 5.9877C10.2007 6.00904 10.1923 6.01544 10.1787 6.01757C10.1619 6.01757 10.1661 6.02077 10.1525 6.01224C10.1441 6.0037 10.1336 5.99944 10.1336 5.9845C10.1336 5.9685 10.1305 5.94184 10.1263 5.93117C10.1189 5.9237 10.1074 5.9205 10.0949 5.91624C10.0247 5.91624 10.0215 5.99624 10.0247 6.02717C10.0194 6.0325 10.0163 6.1765 10.1106 6.21704C10.2363 6.2789 10.5401 6.24264 10.4668 6.04317C10.4668 6.02504 10.4615 5.96317 10.4605 5.94717C10.4469 5.91517 10.4228 5.9045 10.3997 5.9077L10.4008 5.90877ZM14.6593 6.0869H14.6489C14.6489 6.0869 14.0601 6.51357 14.0465 6.5285C13.9878 6.58184 14.0171 6.76637 14.0465 6.74504C14.0884 6.76104 14.6803 6.3525 14.6688 6.3045C14.6949 6.30664 14.7075 6.09437 14.6583 6.08584L14.6593 6.0869ZM10.957 6.1509C10.9801 6.1477 11.0115 6.15624 11.0409 6.17224C11.0859 6.19997 11.1142 6.23837 11.1089 6.26824V6.2725C11.1069 6.2725 11.1069 6.2725 11.1069 6.27464V6.27677C11.1069 6.27677 11.1048 6.27677 11.1048 6.2789C11.1048 6.28104 11.1016 6.28317 11.0995 6.2853C11.0786 6.30664 11.0304 6.30237 10.9843 6.27464C10.9403 6.2501 10.9141 6.21064 10.9162 6.1829V6.1797L10.9214 6.16904C10.9214 6.16904 10.9214 6.1669 10.9235 6.16584L10.9288 6.15944C10.9361 6.1541 10.9455 6.14877 10.957 6.14877V6.1509ZM5.80485 6.25757C5.50104 6.26397 5.05371 6.66504 5.04218 6.8869L6.00599 6.41757C5.95361 6.3365 6.00285 6.26397 5.80485 6.25757ZM6.79276 6.39624C6.82209 6.39837 6.85352 6.4133 6.87028 6.45597C6.88495 6.49544 6.87028 6.53597 6.85247 6.55624V6.55944C6.8378 6.5765 6.7938 6.5701 6.76133 6.5701C6.72256 6.56797 6.70371 6.56157 6.68066 6.52957C6.66809 6.49224 6.70161 6.45704 6.71733 6.43144L6.72466 6.42077C6.73514 6.4101 6.75609 6.40157 6.77704 6.39944L6.79066 6.3973L6.79276 6.39624ZM14.5451 6.52104C14.4896 6.52744 14.4383 6.5797 14.4613 6.6629C14.4467 6.71197 14.5347 6.8837 14.5588 6.97437C14.5797 7.03837 14.5315 7.2229 14.5745 7.24104C14.6143 7.26237 14.718 7.13437 14.7148 6.9701C14.7253 6.88477 14.6855 6.57544 14.5818 6.52424C14.5692 6.52104 14.5567 6.51997 14.5441 6.52104H14.5451ZM7.9619 6.82397C7.91371 6.82717 7.87076 6.85277 7.89066 6.9221C7.88752 6.97117 8.02685 7.03197 8.03418 7.1461C8.05304 7.19517 8.00276 7.34877 8.04466 7.36157C8.08237 7.37757 8.13476 7.2549 8.15466 7.14397C8.16514 7.0821 8.10647 6.86664 8.00799 6.82717C7.99228 6.8229 7.97656 6.82184 7.96085 6.8229L7.9619 6.82397ZM9.93142 7.09704H9.94399C10.0676 7.13117 10.2478 7.13544 10.4049 7.15037C10.5338 7.16104 10.5967 7.2613 10.4783 7.30504C10.3589 7.34557 10.2447 7.3797 10.2447 7.5525C10.2593 7.63784 10.2551 7.68264 10.2426 7.70184C10.2426 7.70504 10.2394 7.70717 10.2384 7.70824C10.2384 7.70824 10.2384 7.71037 10.2363 7.71037V7.7125H10.2331L10.2258 7.7157H10.2206C10.1923 7.72104 10.1514 7.69437 10.121 7.6773C10.0477 7.62397 9.84342 7.49597 9.81409 7.21864C9.8099 7.15464 9.85599 7.1013 9.92933 7.09597L9.93142 7.09704ZM5.11866 7.31037C5.11133 7.31037 5.09771 7.33384 5.07676 7.3605C4.89447 7.65384 4.87771 8.09224 4.97828 8.2245C5.03066 8.2853 5.11866 8.31304 5.18361 8.29384C5.29885 8.2437 5.34809 8.00797 5.3198 7.92264C5.28314 7.86184 5.25276 7.85224 5.21504 7.90344C5.13437 8.06877 5.0998 7.95464 5.09456 7.86077C5.08199 7.6869 5.09876 7.52477 5.11761 7.39677C5.12809 7.33277 5.12809 7.30824 5.11761 7.30824L5.11866 7.31037ZM11.2965 7.6965C11.2829 7.6965 11.2692 7.69864 11.2546 7.70717C11.2514 7.70717 11.1247 7.7925 11.0838 7.85437C11.0587 7.87357 11.0629 7.88957 11.0691 7.9237C11.088 7.96957 11.1215 7.9557 11.1613 7.93437C11.2137 7.92584 11.2378 7.96104 11.2347 8.02397C11.2106 8.10397 11.2451 8.13277 11.2451 8.1381C11.2451 8.14237 11.2944 8.1861 11.353 8.15197C11.4756 8.10397 11.5521 8.05597 11.7249 8.01864C11.77 8.01864 11.7668 7.8949 11.6956 7.89064C11.6013 7.8949 11.5175 7.9013 11.4232 7.97597C11.3656 7.98877 11.3562 7.9525 11.3426 7.9205C11.3279 7.84157 11.3761 7.7861 11.3656 7.72637C11.3677 7.72957 11.3363 7.70077 11.2954 7.69864L11.2965 7.6965ZM15.2523 7.84584L15.1685 7.85437C15.1308 7.86184 15.1182 7.8789 15.1109 7.92584C15.114 7.99517 15.1559 7.99197 15.1999 8.0197C15.225 8.0517 15.2418 8.08157 15.1978 8.13704C15.1559 8.17437 15.1276 8.1957 15.0857 8.23304C15.0679 8.26717 15.0543 8.31837 15.115 8.33544C15.225 8.36744 15.4796 8.1989 15.4796 8.19677C15.5215 8.16477 15.5069 8.10397 15.5037 8.10397C15.4786 8.07624 15.4241 8.0933 15.3885 8.08797C15.3707 8.08797 15.3151 8.07944 15.3403 8.02824C15.3633 7.99624 15.3717 7.9781 15.3874 7.93864C15.4031 7.90024 15.3874 7.87464 15.3267 7.8533C15.2952 7.8469 15.2743 7.84477 15.2502 7.84584H15.2523ZM13.7301 11.9632C14.0129 11.977 14.2769 11.9664 14.5577 11.9802C14.6038 12.0186 14.5818 12.1082 14.5525 12.1232L14.5472 12.1253H14.5441H14.5399L14.3031 12.1189V12.105C14.2801 12.0389 14.1229 12.0432 14.0852 12.0944V12.0976C14.0831 12.0976 14.0821 12.1008 14.0821 12.1018L14.08 12.1072V12.12C13.9543 12.136 13.8443 12.1157 13.7207 12.1114C13.684 12.0656 13.6892 11.9834 13.7311 11.9621L13.7301 11.9632Z" fill="white"/>
</svg>
