<svg width="74" height="16" viewBox="0 0 74 16" fill="none" xmlns="http://www.w3.org/2000/svg">
<g clip-path="url(#clip0_6081_9252)">
<path fill-rule="evenodd" clip-rule="evenodd" d="M16.5518 14.7107H20.2759L21.2563 8.89318C21.4137 7.95719 22.0055 7.28753 22.9201 7.32185C23.7649 7.35207 24.1335 8.00967 23.9462 8.90934L22.9679 14.7127H26.692L27.6704 8.90934C28.1725 5.92794 27.3038 4.13672 24.9027 4.13672C23.6991 4.13672 22.6471 4.54215 21.7983 5.67377L22.0174 4.37473H18.2933L16.5518 14.7127V14.7107Z" fill="#D90217"/>
<path fill-rule="evenodd" clip-rule="evenodd" d="M50.6016 14.7107H54.5289L55.5626 8.89318C55.7284 7.95719 56.3528 7.28753 57.3173 7.32185C58.208 7.35207 58.597 8.00967 58.3991 8.90934L57.3676 14.7127H61.2949L62.3264 8.90934C62.8562 5.92794 61.9397 4.13672 59.408 4.13672C58.1387 4.13672 57.0293 4.54215 56.1364 5.67377L56.3673 4.37473H52.44L50.6034 14.7127L50.6016 14.7107Z" fill="#D90217"/>
<path fill-rule="evenodd" clip-rule="evenodd" d="M73.928 4.35938H70.2715L69.3093 10.1769C69.1544 11.1149 68.5734 11.7826 67.6755 11.7503C66.8459 11.72 66.4841 11.0624 66.668 10.1628L67.6284 4.35938H63.9724L63.0115 10.1628C62.5183 13.1442 63.3715 14.9354 65.7288 14.9354C66.9107 14.9354 67.9436 14.53 68.7749 13.3983L68.5599 14.6974H72.2164L73.9262 4.35938H73.928Z" fill="#D90217"/>
<path fill-rule="evenodd" clip-rule="evenodd" d="M28.1847 9.57882C28.6618 6.31112 30.9904 4.11809 34.351 4.13684C37.3319 4.1535 39.4484 6.36738 39.1271 9.39352C38.7241 13.1986 36.1637 15.3229 33.0056 15.3229C29.8066 15.3229 27.6648 12.9382 28.1867 9.57882H28.1847ZM33.1886 12.1552C32.147 12.151 31.6329 10.9784 31.8666 9.5643C32.0691 8.32926 32.9744 7.27751 34.022 7.3046C35.1551 7.33373 35.603 8.45839 35.4122 9.76631C35.2135 11.1242 34.3744 12.1614 33.1886 12.1552Z" fill="#D90217"/>
<path fill-rule="evenodd" clip-rule="evenodd" d="M39.6509 9.57882C40.1368 6.31112 42.5086 4.11809 45.9315 4.13684C48.9676 4.1535 51.123 6.36738 50.7961 9.39352C50.3854 13.1986 47.7776 15.3229 44.5611 15.3229C41.3029 15.3229 39.1215 12.9382 39.6529 9.57882H39.6509ZM44.7475 12.1552C43.6866 12.151 43.163 10.9784 43.401 9.5643C43.6072 8.32926 44.5294 7.27751 45.5964 7.3046C46.7506 7.33373 47.2066 8.45839 47.0123 9.76631C46.8099 11.1242 45.9555 12.1614 44.7475 12.1552Z" fill="#D90217"/>
<path fill-rule="evenodd" clip-rule="evenodd" d="M10.1169 15.3234C14.1045 15.3234 16.4922 13.1006 16.4922 10.2973C16.4922 5.96555 9.47853 6.39792 9.47853 4.92623C9.47853 4.43499 10.0023 3.94373 11.0499 3.94373C12.7378 3.94373 14.4257 4.89578 15.1541 5.67728L17.3085 2.93285C15.7658 1.51801 13.4089 0.679688 11.0499 0.679688C6.2295 0.679688 4.94055 0.679688 0.118164 0.679688L0.14067 0.809581C0.621477 3.06683 2.03934 4.46341 4.54158 5.1292C3.92983 5.2632 3.27512 5.57782 2.81068 5.91885C3.67204 7.41284 6.21519 8.66528 9.055 9.47318C10.6059 9.96441 12.0094 10.273 12.0094 11.0768C12.0094 11.6249 11.4284 12.0877 10.524 12.0877C8.5435 12.0877 6.39116 10.8454 5.51753 9.92185L3.16054 12.7799C4.87711 14.4262 7.52665 15.3214 10.1169 15.3214V15.3234Z" fill="#D90217"/>
</g>
<defs>
<clipPath id="clip0_6081_9252">
<rect width="73.8095" height="15.4762" fill="white" transform="translate(0.118164 0.261719)"/>
</clipPath>
</defs>
</svg>
