<svg width="74" height="17" viewBox="0 0 74 17" fill="none" xmlns="http://www.w3.org/2000/svg">
<path fill-rule="evenodd" clip-rule="evenodd" d="M71.8783 13.1073C71.3407 13.1073 70.9986 13.0117 70.7542 12.7249C70.5587 12.486 70.461 12.1036 70.461 11.53V8.08874H72.8558L72.5626 5.50776H70.5099V3.16575V1.25391C70.5099 1.25391 69.5813 1.30171 69.288 1.3495C67.724 1.4451 66.6977 2.4966 66.6977 3.64371V5.65114L65.2314 5.74674V8.13654H66.6977V12.1036C66.6977 13.2985 67.0398 14.2544 67.6752 14.9714C68.3105 15.6883 69.288 16.0229 70.5587 16.0229C71.1941 16.0229 71.6828 15.9751 72.1227 15.9273C72.8069 15.7839 73.2957 15.2103 73.2957 14.4934V12.7727C72.8558 12.9639 72.3671 13.1073 71.8783 13.1073Z" fill="#FF5215"/>
<path fill-rule="evenodd" clip-rule="evenodd" d="M33.561 13.4387C33.952 13.2475 34.2453 13.0564 34.4408 12.7696V11.8615C33.8054 11.4313 33.1212 11.2401 32.3392 11.2401C31.8504 11.2401 31.4594 11.3357 31.1662 11.5747C30.873 11.7659 30.7752 12.1004 30.7752 12.4828C30.7752 12.8652 30.9218 13.152 31.1662 13.3909C31.4106 13.5821 31.8016 13.7255 32.3392 13.7255C32.7302 13.6777 33.17 13.5821 33.561 13.4387ZM28.0383 15.0638C27.2563 14.4425 26.8164 13.5821 26.8164 12.4828C26.8164 11.3357 27.2074 10.4754 27.9894 9.85403C28.7714 9.23268 29.8466 8.94591 31.3128 8.94591C31.8504 8.94591 32.4369 8.9937 32.9745 9.13709C33.5121 9.28048 34.0009 9.42386 34.4408 9.61505V9.42387C34.4408 8.32456 33.5122 7.79881 31.7038 7.79881C30.4331 7.79881 29.6511 7.8944 28.6247 8.37236C28.6247 8.37236 28.4781 7.36864 28.4292 6.98627C28.3315 6.22153 28.9669 5.64799 29.9932 5.45681C30.7263 5.31342 31.5083 5.26562 32.3392 5.26562C34.2453 5.26562 35.7115 5.64799 36.689 6.41273C37.6664 7.17746 38.1552 8.22898 38.1552 9.56726V14.2035C38.1552 15.4462 37.7153 15.7329 36.6401 15.7329H34.6851L34.5874 14.8726C34.1964 15.255 33.7077 15.5418 33.1212 15.7329C32.5347 15.9241 31.8504 16.0675 31.1173 16.0675C29.8955 15.9719 28.8202 15.6852 28.0383 15.0638Z" fill="#FF5215"/>
<path fill-rule="evenodd" clip-rule="evenodd" d="M60.0513 13.4387C60.4423 13.2475 60.7355 13.0564 60.931 12.7696V11.8615C60.2956 11.4313 59.6114 11.2401 58.8294 11.2401C58.3407 11.2401 57.9497 11.3357 57.6564 11.5747C57.3632 11.7659 57.2654 12.1004 57.2654 12.4828C57.2654 12.8652 57.4121 13.152 57.6564 13.3909C57.9008 13.5821 58.2918 13.7255 58.8294 13.7255C59.2204 13.6777 59.6603 13.5821 60.0513 13.4387ZM54.5285 15.0638C53.7465 14.4425 53.3066 13.5821 53.3066 12.4828C53.3066 11.3357 53.6976 10.4754 54.4796 9.85403C55.2616 9.23268 56.3368 8.94591 57.8031 8.94591C58.3407 8.94591 58.9272 8.9937 59.4648 9.13709C60.0024 9.28048 60.4911 9.42386 60.931 9.61505V9.42387C60.931 8.32456 60.0024 7.79881 58.194 7.79881C56.9233 7.79881 56.1413 7.8944 55.115 8.37236C55.115 8.37236 54.9684 7.36864 54.9195 6.98627C54.8217 6.22153 55.4571 5.64799 56.4835 5.45681C57.2166 5.31342 57.9986 5.26562 58.8294 5.26562C60.7355 5.26562 62.2017 5.64799 63.1792 6.41273C64.1567 7.17746 64.6454 8.22898 64.6454 9.56726V14.2035C64.6454 15.4462 64.2056 15.7329 63.1303 15.7329H61.1754L61.0776 14.8726C60.6866 15.255 60.1979 15.5418 59.6114 15.7329C59.0249 15.9241 58.3407 16.0675 57.6076 16.0675C56.3857 15.9719 55.3105 15.6852 54.5285 15.0638Z" fill="#FF5215"/>
<path fill-rule="evenodd" clip-rule="evenodd" d="M6.72891 13.1073C6.1913 13.1073 5.84918 13.0117 5.60481 12.7249C5.40931 12.486 5.31156 12.1036 5.31156 11.53V8.08874H7.70639L7.41315 5.50776H5.36044V3.16575V1.25391C5.36044 1.25391 4.43183 1.30171 4.13858 1.3495C2.57461 1.4451 1.54825 2.4966 1.54825 3.64371V5.65114L0.0820312 5.74674V8.13654H1.54825V12.1036C1.54825 13.2985 1.89037 14.2544 2.52574 14.9714C3.1611 15.6883 4.13858 16.0229 5.40931 16.0229C6.04467 16.0229 6.53342 15.9751 6.97328 15.9273C7.65752 15.7839 8.14626 15.2103 8.14626 14.4934V12.7727C7.65752 12.9639 7.16878 13.1073 6.72891 13.1073Z" fill="#FF5215"/>
<path fill-rule="evenodd" clip-rule="evenodd" d="M15.5747 13.4387C15.9656 13.2475 16.2589 13.0564 16.4544 12.7696V11.8615C15.819 11.4313 15.1348 11.2401 14.3528 11.2401C13.8641 11.2401 13.4731 11.3357 13.1798 11.5747C12.8866 11.7659 12.7888 12.1004 12.7888 12.4828C12.7888 12.8652 12.9355 13.152 13.1798 13.3909C13.4242 13.5821 13.8152 13.7255 14.3528 13.7255C14.7927 13.6777 15.1837 13.5821 15.5747 13.4387ZM10.1008 15.0638C9.31877 14.4425 8.87891 13.5821 8.87891 12.4828C8.87891 11.3357 9.2699 10.4754 10.0519 9.85403C10.8339 9.23268 11.9091 8.94591 13.3753 8.94591C13.9129 8.94591 14.4994 8.9937 15.037 9.13709C15.5747 9.28048 16.0634 9.42386 16.5033 9.61505V9.42387C16.5033 8.32456 15.5747 7.79881 13.7663 7.79881C12.4956 7.79881 11.7136 7.8944 10.6872 8.37236C10.6872 8.37236 10.5406 7.36864 10.4918 6.98627C10.394 6.22153 11.0294 5.64799 12.0557 5.45681C12.7888 5.31342 13.5708 5.26562 14.4017 5.26562C16.3078 5.26562 17.774 5.64799 18.7515 6.41273C19.729 7.17746 20.2177 8.22898 20.2177 9.56726V14.2035C20.2177 15.4462 19.7778 15.7329 18.7026 15.7329H16.7476L16.6499 14.8726C16.2589 15.255 15.7702 15.5418 15.1837 15.7329C14.5972 15.9241 13.9129 16.0675 13.1798 16.0675C11.9091 15.9719 10.8827 15.6852 10.1008 15.0638Z" fill="#FF5215"/>
<path fill-rule="evenodd" clip-rule="evenodd" d="M25.4469 15.6385V0.34375C25.4469 0.34375 24.5672 0.391552 24.2251 0.439348C22.6611 0.53494 21.6348 1.58645 21.6348 2.73355V15.6385H25.4469Z" fill="#FF5215"/>
<path fill-rule="evenodd" clip-rule="evenodd" d="M47.9775 12.4361C47.4887 12.8663 46.8534 13.1053 46.1203 13.1053C45.5338 13.1053 45.045 12.9619 44.5563 12.6751C44.1164 12.3883 43.7743 12.006 43.5788 11.4802V9.66397C43.7743 9.18601 44.1164 8.80364 44.5563 8.46907C44.9962 8.18229 45.5338 8.03891 46.1203 8.03891C46.9023 8.03891 47.5376 8.27788 47.9775 8.70805C48.4662 9.13821 48.7106 9.75957 48.7106 10.5243C48.7106 11.3846 48.4662 12.006 47.9775 12.4361ZM51.8874 7.79993C51.4476 6.9874 50.7633 6.31825 49.9325 5.88809C49.1016 5.45792 48.1241 5.21895 47.0489 5.21895C46.3646 5.21895 45.6804 5.31454 45.0939 5.50573C44.4586 5.69691 43.9698 5.98368 43.5299 6.31825V0.34375C43.5299 0.34375 42.6013 0.391552 42.3081 0.439348C40.7441 0.53494 39.7178 1.58645 39.7178 2.73355V15.6385H43.2856L43.3833 14.6347C44.3608 15.5429 45.5827 15.973 47.0489 15.973C48.1241 15.973 49.1016 15.7341 49.9325 15.3039C50.7633 14.8737 51.3987 14.2524 51.8874 13.4398C52.3273 12.6273 52.5717 11.6714 52.5717 10.6199C52.5717 9.56838 52.3762 8.61246 51.8874 7.79993Z" fill="#FF5215"/>
</svg>
