<svg width="33" height="28" viewBox="0 0 33 28" fill="none" xmlns="http://www.w3.org/2000/svg">
<rect x="0.5" width="32" height="28" rx="4" fill="#F3F3F3"/>
<g clip-path="url(#clip0_6035_4545)">
<path d="M12.5 21C13.0304 21 13.5391 20.7893 13.9142 20.4142C14.2893 20.0391 14.5 19.5304 14.5 19C14.5 18.4696 14.2893 17.9609 13.9142 17.5858C13.5391 17.2107 13.0304 17 12.5 17C11.9696 17 11.4609 17.2107 11.0858 17.5858C10.7107 17.9609 10.5 18.4696 10.5 19C10.5 19.5304 10.7107 20.0391 11.0858 20.4142C11.4609 20.7893 11.9696 21 12.5 21ZM22.5 21C23.0304 21 23.5391 20.7893 23.9142 20.4142C24.2893 20.0391 24.5 19.5304 24.5 19C24.5 18.4696 24.2893 17.9609 23.9142 17.5858C23.5391 17.2107 23.0304 17 22.5 17C21.9696 17 21.4609 17.2107 21.0858 17.5858C20.7107 17.9609 20.5 18.4696 20.5 19C20.5 19.5304 20.7107 20.0391 21.0858 20.4142C21.4609 20.7893 21.9696 21 22.5 21Z" stroke="#4B4A4A" stroke-width="1.5" stroke-miterlimit="1.5" stroke-linecap="round" stroke-linejoin="round"/>
<path d="M14.55 19H19.5V8.6C19.5 8.44087 19.4368 8.28826 19.3243 8.17574C19.2117 8.06321 19.0591 8 18.9 8H5.5M10.15 19H8.1C8.02121 19 7.94319 18.9845 7.87039 18.9543C7.79759 18.9242 7.73145 18.88 7.67574 18.8243C7.62002 18.7685 7.57583 18.7024 7.54567 18.6296C7.51552 18.5568 7.5 18.4788 7.5 18.4V13.5" stroke="#4B4A4A" stroke-width="1.5" stroke-linecap="round"/>
<path d="M6.5 11H10.5" stroke="#4B4A4A" stroke-width="1.5" stroke-linecap="round" stroke-linejoin="round"/>
<path d="M19.5 11H25.11C25.226 11 25.3395 11.0337 25.4367 11.0969C25.534 11.16 25.6108 11.25 25.658 11.356L27.448 15.384C27.4821 15.4605 27.4998 15.5433 27.5 15.627V18.4C27.5 18.4788 27.4845 18.5568 27.4543 18.6296C27.4242 18.7024 27.38 18.7685 27.3243 18.8243C27.2685 18.88 27.2024 18.9242 27.1296 18.9543C27.0568 18.9845 26.9788 19 26.9 19H25M19.5 19H20.5" stroke="#4B4A4A" stroke-width="1.5" stroke-linecap="round"/>
</g>
<defs>
<clipPath id="clip0_6035_4545">
<rect width="24" height="24" fill="white" transform="translate(4.5 2)"/>
</clipPath>
</defs>
</svg>
